<svg viewBox="0 0 800 600" xmlns="http://www.w3.org/2000/svg">
  <rect width="800" height="600" fill="#f5f5f5"/>
  
  <rect width="800" height="80" fill="#2c3e50"/>
  <text x="400" y="35" font-family="Arial, sans-serif" font-size="28" font-weight="bold" fill="white" text-anchor="middle">Apple Picking Robot</text>
  <text x="400" y="60" font-family="Arial, sans-serif" font-size="16" fill="#ecf0f1" text-anchor="middle">Supervisor User Interface</text>
  
  <rect x="40" y="110" width="720" height="100" rx="10" fill="white" stroke="#bdc3c7" stroke-width="2"/>
  <text x="60" y="140" font-family="Arial, sans-serif" font-size="18" font-weight="bold" fill="#2c3e50">System Status:</text>
  <circle cx="210" cy="133" r="12" fill="#2ecc71"/>
  <text x="230" y="139" font-family="Arial, sans-serif" font-size="16" fill="#2ecc71">RUNNING</text>
  
  <text x="60" y="175" font-family="Arial, sans-serif" font-size="14" fill="#34495e">Apples Picked: <tspan fill="#e74c3c" font-weight="bold">0</tspan></text>
  <text x="250" y="175" font-family="Arial, sans-serif" font-size="14" fill="#34495e">Battery: <tspan fill="#e67e22" font-weight="bold">55%</tspan></text>
  <text x="450" y="175" font-family="Arial, sans-serif" font-size="14" fill="#34495e">Task: <tspan fill="#777" font-weight="bold">Awaiting Command...</tspan></text>
  
  <text x="40" y="250" font-family="Arial, sans-serif" font-size="20" font-weight="bold" fill="#2c3e50">Control</text>
  
  <g id="start-button" cursor="pointer">
    <rect x="40" y="270" width="160" height="80" rx="8" fill="#27ae60" stroke="#229954" stroke-width="2"/>
    <circle cx="60" cy="310" r="15" fill="white" opacity="0.9"/>
    <polygon points="57,303 57,317 67,310" fill="#27ae60"/>
    <text x="125" y="316" font-family="Arial, sans-serif" font-size="20" font-weight="bold" fill="white" text-anchor="middle">START</text>
  </g>
  
  <g id="stop-button" cursor="pointer">
    <rect x="220" y="270" width="160" height="80" rx="8" fill="#f39c12" stroke="#d68910" stroke-width="2"/>
    <circle cx="240" cy="310" r="15" fill="white" opacity="0.9"/>
    <rect x="234" y="303" width="5" height="14" fill="#f39c12"/>
    <rect x="242" y="303" width="5" height="14" fill="#f39c12"/>
    <text x="305" y="316" font-family="Arial, sans-serif" font-size="20" font-weight="bold" fill="white" text-anchor="middle">PAUSE</text>
  </g>
  
  <g id="emergency-button" cursor="pointer">
    <rect x="400" y="270" width="160" height="80" rx="8" fill="#c0392b" stroke="#a93226" stroke-width="3"/>
    <circle cx="420" cy="310" r="15" fill="white" opacity="0.9"/>
    <rect x="416" y="305" width="9" height="9" fill="#c0392b"/>
    <text x="490" y="317" font-family="Arial, sans-serif" font-size="18" font-weight="bold" fill="white" text-anchor="middle">E-STOP</text>
  </g>
  
  <text x="40" y="390" font-family="Arial, sans-serif" font-size="20" font-weight="bold" fill="#2c3e50">Visualization</text>
  
  <g id="rviz-button" cursor="pointer">
    <rect x="40" y="410" width="160" height="80" rx="8" fill="#3498db" stroke="#2980b9" stroke-width="2"/>
    <!-- 3x3 grid of dots for RViz2 logo -->
    <g fill="white" opacity="0.9">
      <circle cx="56" cy="442" r="3"/>
      <circle cx="64" cy="442" r="3"/>
      <circle cx="72" cy="442" r="3"/>
      <circle cx="56" cy="450" r="3"/>
      <circle cx="64" cy="450" r="3"/>
      <circle cx="72" cy="450" r="3"/>
      <circle cx="56" cy="458" r="3"/>
      <circle cx="64" cy="458" r="3"/>
      <circle cx="72" cy="458" r="3"/>
    </g>
    <text x="125" y="457" font-family="Arial, sans-serif" font-size="20" font-weight="bold" fill="white" text-anchor="middle">RViz2</text>
  </g>
  
  <g id="graphs-button" cursor="pointer">
    <rect x="220" y="410" width="160" height="80" rx="8" fill="#9b59b6" stroke="#8e44ad" stroke-width="2"/>
    <path d="M 232 458 L 232 448 L 238 454 L 244 444 L 250 452 L 256 444" fill="none" stroke="white" stroke-width="3" stroke-linecap="round" stroke-linejoin="round"/>
    <text x="310" y="457" font-family="Arial, sans-serif" font-size="20" font-weight="bold" fill="white" text-anchor="middle">GRAPHS</text>
  </g>
  
  <g id="camera-button" cursor="pointer">
    <rect x="400" y="410" width="160" height="80" rx="8" fill="#16a085" stroke="#138d75" stroke-width="2"/>
    <!-- Camera icon -->
    <rect x="410" y="440" width="32" height="22" rx="3" fill="white" opacity="0.9"/>
    <!-- Camera lens -->
    <circle cx="427" cy="451" r="7" fill="#16a085"/>
    <circle cx="427" cy="451" r="4" fill="white"/>
    <!-- Camera viewfinder -->
    <rect x="412" y="444" width="7" height="5" rx="1" fill="#16a085"/>
    <text x="492" y="457" font-family="Arial, sans-serif" font-size="20" font-weight="bold" fill="white" text-anchor="middle">CAMERA</text>
  </g>
  
  <rect x="40" y="510" width="720" height="70" rx="10" fill="white" stroke="#bdc3c7" stroke-width="2"/>
  <text x="60" y="535" font-family="Arial, sans-serif" font-size="14" font-weight="bold" fill="#2c3e50">System Log:</text>
  <text x="60" y="555" font-family="Courier New, monospace" font-size="12" fill="#7f8c8d">[14:34:22] System startup successful</text>
  <text x="60" y="570" font-family="Courier New, monospace" font-size="12" fill="#7f8c8d">[14:34:25] Waiting for supervisor command...</text>
</svg>